inDegrees=yes
name=ik_data_dance
DataType=double
version=3
OpenSimVersion=4.5
endheader
time	pelvis_tilt	pelvis_list	pelvis_rotation	pelvis_tx	pelvis_ty	pelvis_tz	hip_flexion_r	hip_adduction_r	hip_rotation_r	knee_angle_r	knee_angle_r_beta	ankle_angle_r	subtalar_angle_r	mtp_angle_r	hip_flexion_l	hip_adduction_l	hip_rotation_l	knee_angle_l	knee_angle_l_beta	ankle_angle_l	subtalar_angle_l	mtp_angle_l	lumbar_extension	lumbar_bending	lumbar_rotation	arm_flex_r	arm_add_r	arm_rot_r	elbow_flex_r	pro_sup_r	wrist_flex_r	wrist_dev_r	arm_flex_l	arm_add_l	arm_rot_l	elbow_flex_l	pro_sup_l	wrist_flex_l	wrist_dev_l
0	0	0	0	0	0.9399999999999999	0	0	0	0	0	0	0	0	0	0	0	0	0	0	0	0	0	0	0	0	0	0	0	0	0	0	0	0	0	0	0	0	0	0
1	0	0	0	0	0.9399999999999999	0	0	0	0	0	0	0	0	0	0	0	0	0	0	0	0	0	0	0	0	0	0	0	0	0	0	0	0	0	0	0	0	0	0
2	2.129849582844255	1.103617684009759	-0.2004407032824967	0	0.9399999999999999	0	44.20358823875184	-9.888633949798189	0	60.42505407837434	1.05461614436326	-4.956255987592467	0	0	44.20358823875184	-9.888633949798189	0	60.42505407837434	1.05461614436326	-4.956255987592467	0	0	0.420986919656693	0.3915867694498627	0.5562959575505082	-2.970901874755765	-1.151108500126957	-0.1605893098195718	0.1879310261102548	44.90234547347465	0	0	0	-12.48167075204043	0	75.02900426891146	44.90234547347465	0	0
3	2.024677931619822	1.177618356483326	-0.3539514967094675	0	0.9399999999999999	0	44.20908866814514	-9.890417727763994	0	60.42209769669698	1.054564545769044	-4.957085892508774	0	0	44.20908866814514	-9.890417727763994	0	60.42209769669698	1.054564545769044	-4.957085892508774	0	0	0.3278215282549617	0.4669499169057147	0.3969217113146695	-3.04419515694092	-1.107174001941182	-0.3106106580696983	2.006953649226978	44.90368936969092	0	0	0	-12.4923729620477	0	75.02880517473801	44.90368936969092	0	0
4	2.213073033570066	1.123148400933773	-0.2515288177907905	0	0.9399999999999999	0	44.20916619958451	-9.890454938483558	0	60.42206499293766	1.054563974980766	-4.9571048729343	0	0	44.20916619958451	-9.890454938483558	0	60.42206499293766	1.054563974980766	-4.9571048729343	0	0	0.5146620425054516	0.4141855430200285	0.5010411785630914	-2.858395135916497	-1.175230007332925	-0.2131332659636138	1.505734782464136	44.90371527600595	0	0	0	-12.49249951872774	0	75.02880236857999	44.90371527600595	0	0
5	2.134133585064051	1.149034871153946	-0.2488283475366949	0	0.9399999999999999	0	44.22233989950968	-9.896530420052539	0	60.41655078599357	1.054467733913956	-4.96014246706866	0	0	44.22233989950968	-9.896530420052539	0	60.41655078599357	1.054467733913956	-4.96014246706866	0	0	0.4562140730278325	0.4440200351551304	0.4933668951578183	-2.876323176171296	-1.26540566379668	-0.2096326040999709	1.826059958604804	44.90800170656408	0	-8.900357177807239e-62	0	-12.5140439866174	0	75.0283255600298	44.90800170656408	0	-8.900357177807239e-62
6	2.166774677151151	1.182316606763975	-0.2450635077788486	0	0.9399999999999999	0	44.23111931643786	-9.900449717908336	0	60.41284684250518	1.054403087904775	-4.962078231234182	0	0	44.23111931643786	-9.900449717908336	0	60.41284684250518	1.054403087904775	-4.962078231234182	0	0	0.501209741350083	0.4844617708744506	0.4880179353374209	-2.804727859092976	-1.303962692156544	-0.2090029031064005	1.509664426107713	44.91079122372654	0	0	0	-12.52852677352544	0	75.02800779667967	44.91079122372654	0	0
7	2.090114198969852	1.199174818316361	-0.2379340856987834	0	0.9399999999999999	0	44.24294456497909	-9.905415183288792	0	60.40785897302618	1.054316033159707	-4.964468470478338	0	0	44.24294456497909	-9.905415183288792	0	60.40785897302618	1.054316033159707	-4.964468470478338	0	0	0.4424257026363118	0.5101391644223199	0.479537149350815	-2.827182019320408	-1.382987746878259	-0.2128753246904396	1.845680872819373	44.91438959560301	0	0	0	-12.54823211240164	0	75.02757978871267	44.91438959560301	0	0
8	2.087231518582922	1.22126440935014	-0.240002461121766	0	0.9399999999999999	0	44.25034015959568	-9.908528208273198	0	60.40473180255817	1.054261453738769	-4.965969387708248	0	0	44.25034015959568	-9.908528208273198	0	60.40473180255817	1.054261453738769	-4.965969387708248	0	0	0.451063938717874	0.5358530237083028	0.4747714367785454	-2.795726174083672	-1.426100718321799	-0.2092164523079887	1.764043419601175	44.916643225151	0	-8.704895294601433e-62	0	-12.56056532205036	0	75.02731210961227	44.916643225151	0	-8.704895294601433e-62
9	2.121832401801685	1.239124960996502	-0.2330671002008882	0	0.9399999999999999	0	44.2536021026776	-9.909774687467047	0	60.40330784961758	1.054236601071563	-4.9665539615638	0	0	44.2536021026776	-9.909774687467047	0	60.40330784961758	1.054236601071563	-4.9665539615638	0	0	0.4900910674975925	0.5587674703565808	0.4750388006755246	-2.746677643999398	-1.433987617419682	-0.2114522267757941	1.503389377335309	44.91756572966079	0	0	0	-12.56620351694184	0	75.02719404362149	44.91756572966079	0	0
10	2.050326153343523	1.257341301139835	-0.2297884694341795	0	0.9399999999999999	0	44.26576283903494	-9.914623400244061	0	60.39815047643665	1.054146587928801	-4.968840868698356	0	0	44.26576283903494	-9.914623400244061	0	60.39815047643665	1.054146587928801	-4.968840868698356	0	0	0.4367818883826007	0.5860192489411853	0.4663276552871337	-2.762888322403169	-1.515008556612011	-0.2127367310060282	1.807562726846981	44.92113086596515	0	0	0	-12.58669592253603	0	75.02675389006791	44.92113086596515	0	0
11	2.152737697992504	1.05268283424633	-0.1990858270196062	0	0.9399999999999999	0	44.26810648796963	-9.915255929389931	0	60.39686973223106	1.054124234725538	-4.969114460972603	0	0	44.26810648796963	-9.915255929389931	0	60.39686973223106	1.054124234725538	-4.969114460972603	0	0	0.5433675847612079	0.3837033815749929	0.498285193637488	-2.650500287656018	-1.758759581444272	-0.1912125096912999	2.203270090645185	44.92163272508325	0	0	0	-12.59143636466749	0	75.02666905782988	44.92163272508325	0	0
12	2.127952665880007	1.133436626668444	-0.2699592539122426	0	0.9399999999999999	0	44.27186054959962	-9.916267885771573	0	60.39482249723054	1.054088503734217	-4.969551855386606	0	0	44.27186054959962	-9.916267885771573	0	60.39482249723054	1.054088503734217	-4.969551855386606	0	0	0.5260391579013657	0.4661392642377662	0.4234571165468824	-2.654025015018857	-1.70231684740031	-0.2590889714542355	2.990440861008809	44.92243599170618	0	0	0	-12.59902923552372	0	75.02653317338439	44.92243599170618	0	0
13	2.143236985573449	1.061650422963955	-0.1991201651548912	0	0.9399999999999999	0	44.2719171946849	-9.916290602903207	0	60.39479835848235	1.054088082433584	-4.969562628208977	0	0	44.2719171946849	-9.916290602903207	0	60.39479835848235	1.054088082433584	-4.969562628208977	0	0	0.5403233119535003	0.3951204073350117	0.4950769389711113	-2.640659643577179	-1.781379784964833	-0.1912108566735342	2.212012552759322	44.92245264228261	0	1.080039667175212e-48	0	-12.5991250072675	0	75.02653112313536	44.92245264228261	0	1.080039667175212e-48
14	2.285650784836782	1.057468918750594	-0.3402013258035329	0	0.9399999999999999	0	44.27411947550453	-9.916878813806919	0	60.3935951116579	1.054067081814783	-4.969816193959499	0	0	44.27411947550453	-9.916878813806919	0	60.3935951116579	1.054067081814783	-4.969816193959499	0	0	0.6891953635508307	0.3914588786954898	0.3534648900777368	-2.483503912373955	-1.803505163788856	-0.3358123131689427	2.584008464103774	44.92292054315891	0	0	0	-12.60359309681735	0	75.02645140787494	44.92292054315891	0	0
